<svg xmlns="http://www.w3.org/2000/svg" width="1200" height="760" viewBox="0 0 1200 760" role="img" aria-label="Creative marketing campaign cards and analytics illustration">
  <defs>
    <linearGradient id="bg" x1="0" y1="0" x2="1" y2="1">
      <stop offset="0" stop-color="#0f1722"/>
      <stop offset="1" stop-color="#22293a"/>
    </linearGradient>
    <linearGradient id="gold" x1="0" y1="0" x2="1" y2="1">
      <stop offset="0" stop-color="#f7dfbd"/>
      <stop offset="1" stop-color="#f0b35a"/>
    </linearGradient>
    <filter id="shadow" x="-20%" y="-20%" width="140%" height="140%">
      <feDropShadow dx="0" dy="30" stdDeviation="26" flood-color="#000" flood-opacity=".36"/>
    </filter>
  </defs>
  <rect width="1200" height="760" rx="56" fill="url(#bg)"/>
  <path d="M0 560C160 470 300 518 436 440c182-104 328-96 510-10 92 44 178 48 254 10v320H0z" fill="#f0b35a" opacity=".10"/>
  <g filter="url(#shadow)">
    <rect x="136" y="122" width="330" height="500" rx="36" fill="rgba(255,255,255,.08)" stroke="rgba(255,255,255,.16)"/>
    <rect x="170" y="164" width="262" height="220" rx="28" fill="url(#gold)"/>
    <circle cx="240" cy="236" r="44" fill="#0c1017" opacity=".92"/>
    <path d="M292 304c54-86 100-84 116 0" fill="none" stroke="#0c1017" stroke-width="16" stroke-linecap="round" opacity=".86"/>
    <text x="170" y="442" fill="#f7f3ea" font-family="Inter, Arial, sans-serif" font-size="32" font-weight="900">Brand story</text>
    <text x="170" y="482" fill="#b9b3aa" font-family="Inter, Arial, sans-serif" font-size="20">Clear messaging that makes</text>
    <text x="170" y="512" fill="#b9b3aa" font-family="Inter, Arial, sans-serif" font-size="20">the offer easy to choose.</text>

    <rect x="520" y="92" width="544" height="260" rx="36" fill="rgba(255,255,255,.08)" stroke="rgba(255,255,255,.16)"/>
    <text x="564" y="152" fill="#f7dfbd" font-family="Inter, Arial, sans-serif" font-size="28" font-weight="900">Creative performance</text>
    <g fill="none" stroke-width="10" stroke-linecap="round" stroke-linejoin="round">
      <path d="M574 270c68-66 108-44 158-92 48-46 96-34 144 12 40 38 78 48 134-28" stroke="#72d9ff"/>
      <path d="M574 296c86-22 154-10 218-48 68-42 126-12 218-12" stroke="#f0b35a" opacity=".9"/>
    </g>
    <g fill="rgba(255,255,255,.16)">
      <rect x="574" y="188" width="80" height="16" rx="8"/>
      <rect x="574" y="220" width="140" height="16" rx="8"/>
      <rect x="828" y="188" width="170" height="16" rx="8"/>
    </g>

    <rect x="520" y="402" width="250" height="220" rx="36" fill="rgba(255,255,255,.08)" stroke="rgba(255,255,255,.16)"/>
    <text x="558" y="462" fill="#f7dfbd" font-family="Inter, Arial, sans-serif" font-size="24" font-weight="900">Clicks</text>
    <text x="558" y="540" fill="#f7f3ea" font-family="Inter, Arial, sans-serif" font-size="66" font-weight="900">+41%</text>

    <rect x="814" y="402" width="250" height="220" rx="36" fill="rgba(255,255,255,.08)" stroke="rgba(255,255,255,.16)"/>
    <text x="852" y="462" fill="#f7dfbd" font-family="Inter, Arial, sans-serif" font-size="24" font-weight="900">Cost waste</text>
    <text x="852" y="540" fill="#f7f3ea" font-family="Inter, Arial, sans-serif" font-size="66" font-weight="900">-24%</text>
  </g>
</svg>
