<svg xmlns="http://www.w3.org/2000/svg" width="980" height="760" viewBox="0 0 980 760" role="img" aria-label="Dashboard modern de marketing cu grafice de creștere">
  <defs>
    <linearGradient id="bg" x1="0" y1="0" x2="1" y2="1">
      <stop offset="0" stop-color="#2f3545"/>
      <stop offset="1" stop-color="#101318"/>
    </linearGradient>
    <linearGradient id="gold" x1="0" y1="0" x2="1" y2="1">
      <stop offset="0" stop-color="#f7dfbd"/>
      <stop offset="1" stop-color="#f0b35a"/>
    </linearGradient>
    <linearGradient id="blue" x1="0" y1="0" x2="1" y2="1">
      <stop offset="0" stop-color="#72d9ff"/>
      <stop offset="1" stop-color="#6f7cff"/>
    </linearGradient>
    <filter id="shadow" x="-20%" y="-20%" width="140%" height="140%">
      <feDropShadow dx="0" dy="28" stdDeviation="28" flood-color="#000" flood-opacity="0.35"/>
    </filter>
  </defs>
  <rect width="980" height="760" rx="58" fill="url(#bg)"/>
  <circle cx="760" cy="140" r="190" fill="#f0b35a" opacity=".12"/>
  <circle cx="180" cy="650" r="220" fill="#6f7cff" opacity=".10"/>

  <g filter="url(#shadow)">
    <rect x="86" y="82" width="808" height="596" rx="34" fill="rgba(255,255,255,.075)" stroke="rgba(255,255,255,.16)"/>
    <rect x="120" y="122" width="740" height="72" rx="20" fill="rgba(255,255,255,.08)"/>
    <circle cx="154" cy="158" r="11" fill="#f0b35a"/>
    <circle cx="188" cy="158" r="11" fill="rgba(255,255,255,.3)"/>
    <circle cx="222" cy="158" r="11" fill="rgba(255,255,255,.18)"/>
    <text x="704" y="167" fill="#f7dfbd" font-family="Inter, Arial, sans-serif" font-size="22" font-weight="800">AMBRU</text>

    <rect x="120" y="226" width="220" height="138" rx="24" fill="rgba(255,255,255,.08)" stroke="rgba(255,255,255,.12)"/>
    <text x="146" y="270" fill="#b8b1a6" font-family="Inter, Arial, sans-serif" font-size="18">Lead quality</text>
    <text x="146" y="326" fill="#f4f1ea" font-family="Inter, Arial, sans-serif" font-size="54" font-weight="900">+38%</text>
    <path d="M260 320l18-18 16 11 26-42" fill="none" stroke="#f0b35a" stroke-width="10" stroke-linecap="round" stroke-linejoin="round"/>

    <rect x="380" y="226" width="480" height="226" rx="24" fill="rgba(255,255,255,.08)" stroke="rgba(255,255,255,.12)"/>
    <polyline points="420,396 482,360 548,374 612,312 682,334 756,270 826,286" fill="none" stroke="url(#gold)" stroke-width="12" stroke-linecap="round" stroke-linejoin="round"/>
    <polyline points="420,414 482,402 548,422 612,386 682,394 756,350 826,362" fill="none" stroke="url(#blue)" stroke-width="8" stroke-linecap="round" stroke-linejoin="round" opacity=".78"/>
    <g stroke="rgba(255,255,255,.12)">
      <line x1="420" y1="262" x2="826" y2="262"/>
      <line x1="420" y1="322" x2="826" y2="322"/>
      <line x1="420" y1="382" x2="826" y2="382"/>
    </g>

    <rect x="120" y="396" width="220" height="178" rx="24" fill="rgba(255,255,255,.08)" stroke="rgba(255,255,255,.12)"/>
    <circle cx="230" cy="486" r="58" fill="none" stroke="rgba(255,255,255,.16)" stroke-width="20"/>
    <path d="M230 428a58 58 0 1 1-50 87" fill="none" stroke="#f0b35a" stroke-width="20" stroke-linecap="round"/>
    <text x="198" y="496" fill="#f4f1ea" font-family="Inter, Arial, sans-serif" font-size="30" font-weight="900">72%</text>

    <rect x="380" y="486" width="480" height="88" rx="24" fill="rgba(255,255,255,.08)" stroke="rgba(255,255,255,.12)"/>
    <rect x="414" y="524" width="150" height="16" rx="8" fill="#f0b35a"/>
    <rect x="584" y="524" width="108" height="16" rx="8" fill="rgba(255,255,255,.24)"/>
    <rect x="714" y="524" width="84" height="16" rx="8" fill="rgba(255,255,255,.14)"/>
  </g>
</svg>
