<svg xmlns="http://www.w3.org/2000/svg" width="1200" height="760" viewBox="0 0 1200 760" role="img" aria-label="Modern marketing strategy workspace illustration">
  <defs>
    <linearGradient id="bg" x1="0" y1="0" x2="1" y2="1">
      <stop offset="0" stop-color="#202838"/>
      <stop offset="1" stop-color="#0c1017"/>
    </linearGradient>
    <linearGradient id="gold" x1="0" y1="0" x2="1" y2="1">
      <stop offset="0" stop-color="#f7dfbd"/>
      <stop offset="1" stop-color="#f0b35a"/>
    </linearGradient>
    <linearGradient id="aqua" x1="0" y1="0" x2="1" y2="1">
      <stop offset="0" stop-color="#72d9ff"/>
      <stop offset="1" stop-color="#9b8cff"/>
    </linearGradient>
    <filter id="shadow" x="-20%" y="-20%" width="140%" height="140%">
      <feDropShadow dx="0" dy="28" stdDeviation="24" flood-color="#000" flood-opacity=".34"/>
    </filter>
  </defs>
  <rect width="1200" height="760" rx="56" fill="url(#bg)"/>
  <circle cx="940" cy="120" r="220" fill="#f0b35a" opacity=".12"/>
  <circle cx="220" cy="650" r="240" fill="#72d9ff" opacity=".10"/>
  <g stroke="rgba(255,255,255,.08)">
    <path d="M110 150H1090"/>
    <path d="M110 300H1090"/>
    <path d="M110 450H1090"/>
    <path d="M110 600H1090"/>
    <path d="M250 90V670"/>
    <path d="M500 90V670"/>
    <path d="M750 90V670"/>
    <path d="M1000 90V670"/>
  </g>
  <g filter="url(#shadow)">
    <rect x="116" y="116" width="430" height="250" rx="30" fill="rgba(255,255,255,.075)" stroke="rgba(255,255,255,.15)"/>
    <text x="154" y="174" fill="#f7dfbd" font-family="Inter, Arial, sans-serif" font-size="24" font-weight="900">Positioning Map</text>
    <text x="154" y="216" fill="#b9b3aa" font-family="Inter, Arial, sans-serif" font-size="19">Audience, value proposition and channel fit.</text>
    <circle cx="250" cy="292" r="48" fill="url(#gold)" opacity=".94"/>
    <circle cx="390" cy="278" r="34" fill="url(#aqua)" opacity=".92"/>
    <circle cx="445" cy="326" r="22" fill="#9b8cff" opacity=".88"/>

    <rect x="618" y="116" width="466" height="250" rx="30" fill="rgba(255,255,255,.075)" stroke="rgba(255,255,255,.15)"/>
    <text x="656" y="174" fill="#f7dfbd" font-family="Inter, Arial, sans-serif" font-size="24" font-weight="900">Campaign Pipeline</text>
    <rect x="656" y="228" width="92" height="98" rx="18" fill="rgba(240,179,90,.22)"/>
    <rect x="776" y="198" width="92" height="128" rx="18" fill="rgba(114,217,255,.20)"/>
    <rect x="896" y="158" width="92" height="168" rx="18" fill="rgba(155,140,255,.22)"/>
    <path d="M670 256c58-34 128-18 180-62s102-42 150-76" fill="none" stroke="url(#gold)" stroke-width="8" stroke-linecap="round"/>

    <rect x="116" y="430" width="968" height="220" rx="30" fill="rgba(255,255,255,.075)" stroke="rgba(255,255,255,.15)"/>
    <text x="154" y="488" fill="#f7dfbd" font-family="Inter, Arial, sans-serif" font-size="24" font-weight="900">Growth Roadmap</text>
    <g fill="none" stroke-width="8" stroke-linecap="round" stroke-linejoin="round">
      <path d="M190 570h180l70-54h168l86 72h166l78-88" stroke="url(#aqua)"/>
      <path d="M190 608h748" stroke="rgba(255,255,255,.14)"/>
    </g>
    <g fill="url(#gold)">
      <circle cx="190" cy="570" r="12"/>
      <circle cx="440" cy="516" r="12"/>
      <circle cx="694" cy="588" r="12"/>
      <circle cx="938" cy="500" r="12"/>
    </g>
  </g>
</svg>
